<svg width="33" height="33" viewBox="0 0 33 33" fill="none" xmlns="http://www.w3.org/2000/svg">
<path d="M14.9682 14.2549L16.7403 13.04L24.8037 23.1727C25.5267 24.0812 25.3271 25.4122 24.3695 26.0687C23.4119 26.7252 22.0984 26.4314 21.5117 25.4295L14.9682 14.2549Z" fill="url(#paint0_linear_402_8178)" stroke="#BC8C46" stroke-linecap="round" stroke-linejoin="round"/>
<rect x="9.60529" y="11.8691" width="8" height="5" transform="rotate(-34.4322 9.60529 11.8691)" fill="url(#paint1_linear_402_8178)" stroke="#BC8C46" stroke-linecap="round" stroke-linejoin="round"/>
<rect x="6.00006" y="11.916" width="3" height="9" rx="1.5" transform="rotate(-34.4322 6.00006 11.916)" fill="url(#paint2_linear_402_8178)" stroke="#BC8C46" stroke-linecap="round" stroke-linejoin="round"/>
<rect x="15.0727" y="5.69629" width="3" height="9" rx="1.5" transform="rotate(-34.4322 15.0727 5.69629)" fill="url(#paint3_linear_402_8178)" stroke="#BC8C46" stroke-linecap="round" stroke-linejoin="round"/>
<defs>
<linearGradient id="paint0_linear_402_8178" x1="21.5512" y1="26.7192" x2="25.0282" y2="24.7416" gradientUnits="userSpaceOnUse">
<stop stop-color="#BC8C46"/>
<stop offset="1" stop-color="#FFDE76"/>
</linearGradient>
<linearGradient id="paint1_linear_402_8178" x1="8.59297" y1="16.5182" x2="14.709" y2="19.3991" gradientUnits="userSpaceOnUse">
<stop stop-color="#BC8C46"/>
<stop offset="1" stop-color="#FFDE76"/>
</linearGradient>
<linearGradient id="paint2_linear_402_8178" x1="5.62044" y1="20.2843" x2="8.39612" y2="20.5567" gradientUnits="userSpaceOnUse">
<stop stop-color="#BC8C46"/>
<stop offset="1" stop-color="#FFDE76"/>
</linearGradient>
<linearGradient id="paint3_linear_402_8178" x1="14.6931" y1="14.0646" x2="17.4688" y2="14.337" gradientUnits="userSpaceOnUse">
<stop stop-color="#BC8C46"/>
<stop offset="1" stop-color="#FFDE76"/>
</linearGradient>
</defs>
</svg>
