<svg width="40" height="31" viewBox="0 0 40 31" fill="none" xmlns="http://www.w3.org/2000/svg">
<path d="M30.9923 2.56055L28.345 4.22215L27.4733 9.4927L33.3705 5.96312L30.9923 2.56055Z" fill="#FFDE76"/>
<path d="M33.4894 9.35046L32.3433 16.3937L24.0624 17.6055L26.0317 5.67801L20.0054 0L13.979 5.67801L15.9483 17.6055L7.66747 16.3937L6.52139 9.35046L0 5.25997L2.63115 21.9606C15.3403 23.4476 20 30.221 20 30.221C20 30.221 24.6597 23.4476 37.3688 21.9606L40 5.25997L33.4894 9.35046Z" fill="#FFDE76"/>
<path d="M11.6602 4.22215L9.01285 2.56055L6.63458 5.96312L12.5318 9.4927L11.6602 4.22215Z" fill="#FFDE76"/>
</svg>
