<svg width="33" height="33" viewBox="0 0 33 33" fill="none" xmlns="http://www.w3.org/2000/svg">
<path d="M16.7263 15.5859C12.9346 14.2659 15.0838 12.0417 12.4847 10.6922C11.2185 10.0347 10.6533 9.09716 10.4066 8.13667H23.046C22.7992 9.09716 22.234 10.0347 20.9678 10.6922C18.3687 12.0417 20.518 14.2659 16.7263 15.5859Z" fill="url(#paint0_linear_568_7123)"/>
<path d="M16.7263 15.5859V22.1582M16.7263 15.5859C12.9346 14.2659 15.0838 12.0417 12.4847 10.6922C11.2185 10.0347 10.6533 9.09716 10.4066 8.13667H23.046M16.7263 15.5859C20.518 14.2659 18.3687 12.0417 20.9678 10.6922C22.234 10.0347 22.7992 9.09716 23.046 8.13667M16.7263 5.32715L23.2125 5.32715C23.2125 6.089 23.3057 7.12554 23.046 8.13667" stroke="#BC8C46" stroke-linecap="round" stroke-linejoin="round"/>
<path d="M16.7263 15.5859V22.1582M16.7263 15.5859C12.9346 14.2659 15.0838 12.0417 12.4847 10.6922C9.88562 9.34263 10.24 6.8127 10.24 5.32715H16.7263L23.2125 5.32715C23.2125 6.8127 23.5669 9.34263 20.9678 10.6922C18.3687 12.0417 20.518 14.2659 16.7263 15.5859Z" stroke="#BC8C46" stroke-linecap="round" stroke-linejoin="round"/>
<path d="M10.4194 8.13672H23.0605" stroke="#BC8C46" stroke-linecap="round" stroke-linejoin="round"/>
<path d="M20.0125 22.1582L13.4402 22.1582" stroke="#BC8C46" stroke-linecap="round" stroke-linejoin="round"/>
<path d="M13.2366 5.2942C13.2366 3.72458 11.9642 2.45215 10.3945 2.45215C8.82492 2.45215 7.55249 3.72458 7.55249 5.2942C7.55249 6.86382 8.82492 8.13625 10.3945 8.13625" stroke="#BC8C46" stroke-linecap="round" stroke-linejoin="round"/>
<path d="M19.2446 8.13666L21.2772 0.550781L25.2359 1.61152" stroke="#BC8C46" stroke-linecap="round" stroke-linejoin="round"/>
<defs>
<linearGradient id="paint0_linear_568_7123" x1="8.78404" y1="20.9769" x2="20.1881" y2="23.5346" gradientUnits="userSpaceOnUse">
<stop stop-color="#BC8C46"/>
<stop offset="1" stop-color="#FFDE76"/>
</linearGradient>
</defs>
</svg>
