<svg width="29" height="29" viewBox="0 0 29 29" fill="none" xmlns="http://www.w3.org/2000/svg">
<path d="M20.2019 7.73211C19.1955 6.7535 17.4307 5.58246 14.8143 5.58246C11.1299 5.58246 8.00275 8.10083 6.87238 11.5816C6.59372 12.48 6.42349 13.4426 6.42349 14.4372C6.42349 15.4318 6.59372 16.3943 6.88787 17.2927C8.00264 20.7737 11.1297 23.2925 14.8143 23.2925C16.8887 23.2925 18.4679 22.6989 19.6444 21.8487L19.6457 21.8497L19.6459 21.8483C21.5037 20.5009 22.3397 18.4957 22.4944 17.1642H14.8157V11.8063H27.8975C28.0987 12.7047 28.1917 13.5709 28.1917 14.758C28.1917 19.1534 26.6744 22.859 24.0426 25.3776L24.0404 25.3773C21.7336 27.5911 18.5762 28.8751 14.8143 28.8751C9.36474 28.8751 4.65837 25.6346 2.36714 20.9183C1.42282 18.9612 0.881104 16.7632 0.881104 14.4372C0.881104 12.1113 1.42291 9.91365 2.36715 7.95662C4.6584 3.24041 9.36478 0 14.8143 0C18.5763 0 21.7191 1.42771 24.1342 3.75375L20.2019 7.73211Z" fill="white" fill-opacity="0.7"/>
</svg>
